<svg xmlns="http://www.w3.org/2000/svg" viewBox="0 0 60 54.654"><path class="a" d="M45.906 12.884c0 1.818-1.323 2.923-2.29 3.734-.366.307-1.047.868-1.045 1.077a1.465 1.465 0 0 1-1.471 1.478h-.012A1.469 1.469 0 0 1 39.6 17.72c-.013-1.611 1.163-2.576 2.107-3.369.741-.622 1.227-1.06 1.227-1.461a1.472 1.472 0 0 0-2.944 0 1.488 1.488 0 0 1-2.975 0 4.447 4.447 0 0 1 8.894-.006zm-4.782 7.662a1.46 1.46 0 0 0-1.455 1.488v.011a1.455 1.455 0 0 0 1.455 1.481 1.49 1.49 0 0 0 0-2.981zM11.139 30.909a1.488 1.488 0 0 0 0 2.975h.124a1.488 1.488 0 1 0 0-2.975zm5.17 0a1.488 1.488 0 0 0 0 2.975h.124a1.488 1.488 0 1 0 0-2.975zM60 7.149v16.744a7.151 7.151 0 0 1-7.143 7.181H33.565c-.377 0-.688 0-.948-.008s-.579-.008-.7.005c-.124.083-.43.362-.724.633l-.391.355-5.458 4.975a1.522 1.522 0 0 1-2.536-1.1V20.165H7.226a4.263 4.263 0 0 0-4.251 4.229v16.744a4.2 4.2 0 0 0 4.251 4.151h21.55a1.493 1.493 0 0 1 .992.421l4.447 4.1V35.671a1.488 1.488 0 1 1 2.975 0v17.51a1.467 1.467 0 0 1-.877 1.353 1.426 1.426 0 0 1-.589.119 1.5 1.5 0 0 1-1-.4L28.2 48.264H7.226A7.175 7.175 0 0 1 0 41.138V24.394a7.241 7.241 0 0 1 7.226-7.2H22.81V7.149A7.216 7.216 0 0 1 30.061 0h22.8A7.123 7.123 0 0 1 60 7.149zm-2.975 0a4.145 4.145 0 0 0-4.168-4.174h-22.8a4.238 4.238 0 0 0-4.276 4.174v25.416l2.991-2.7c.139-.126.294-.242.407-.347 1.366-1.259 1.715-1.46 3.5-1.423.243.005.532.007.885.007h19.293a4.173 4.173 0 0 0 4.168-4.206z"/></svg>