<svg xmlns="http://www.w3.org/2000/svg" viewBox="0 0 24 24"><path class="cls-1" d="M23.545 7.486L12.576.173a1.042 1.042 0 0 0-1.152 0L.455 7.486A1.048 1.048 0 0 0 0 8.343v7.312a1.048 1.048 0 0 0 .455.857l10.969 7.314a1.042 1.042 0 0 0 1.152 0l10.969-7.314a1.049 1.049 0 0 0 .455-.857V8.343a1.049 1.049 0 0 0-.455-.857zM13.031 2.959l8.076 5.384-3.6 2.411-4.476-2.987zm-2.062 0v4.808L6.5 10.754 2.9 8.343zm-8.907 7.313l2.585 1.727-2.585 1.728zm8.907 10.767l-8.076-5.384 3.6-2.411 4.473 2.987zM12 14.437l-3.643-2.438L12 9.562l3.643 2.437zm1.031 6.6v-4.806l4.469-2.986 3.6 2.411zm8.906-7.313l-2.584-1.725 2.585-1.728z"/></svg>