<svg xmlns="http://www.w3.org/2000/svg" viewBox="0 0 135.447 71.966">
  <defs>
    <style>
      .cls-1 {
        fill: #fff;
      }

      .cls-2 {
        fill: #e2011c;
      }

      .cls-3 {
        fill: #003189;
      }

      .cls-4 {
        fill: #7f7f7f;
      }
    </style>
  </defs>
  <g id="Republique_Francaise" data-name="Republique Francaise" transform="translate(0)">
    <path id="Path_287" data-name="Path 287" class="cls-1" d="M0,0H135.448V41.324H0Z"/>
    <path id="Path_288" data-name="Path 288" d="M108.165,107.663c-.074-.027-.079-.1-.016-.263.079-.205.116-.222.422-.186.276.034.358.011.47-.14.224-.286.052-.493-.358-.425-.313.053-.313.049-.254-.165.187-.682.2-.644-.358-.745a3.42,3.42,0,0,1-1.813-.957,3.121,3.121,0,0,1-.925-2.712,2.711,2.711,0,0,1,.306-1.288c.656-1.314,2.163-1.983,4.191-1.864a9.661,9.661,0,0,1,1.238.15l.44.1.045,1.462h-.269c-.156,0-.268-.044-.268-.1,0-.21-.544-.687-.925-.817a3.318,3.318,0,0,0-1.932.079,2.57,2.57,0,0,0-1.261,3.134,2.866,2.866,0,0,0,.9,1.548,2.179,2.179,0,0,0,1.633.6,1.676,1.676,0,0,0,1.581-.825c.224-.376.3-.426.515-.3.1.058.1.188.008.789l-.112.723-.4.123a6.878,6.878,0,0,1-1.127.174c-.693.043-.731.058-.731.232,0,.137.052.188.2.188a.662.662,0,0,1,.634.47.934.934,0,0,1-.492.919,3.258,3.258,0,0,1-1.372.065Zm-52.4-.334a7.253,7.253,0,0,1-2.208-1.028l-.678-.45-1.052-.049a3.681,3.681,0,0,1-2.334-.675,3.449,3.449,0,0,1-.112-5.289,4.8,4.8,0,0,1,4.9-.488,3.387,3.387,0,0,1,.41,5.615,2.687,2.687,0,0,1-.634.445,15.6,15.6,0,0,0,2.5,1.232,3.4,3.4,0,0,0,2.021.079c.418-.132.492-.116.559.125.045.141-.03.2-.448.376a5.58,5.58,0,0,1-2.886.107h-.038Zm-2.58-2.456c1.477-.695,1.76-2.921.552-4.343a2.258,2.258,0,0,0-3.819.388,3.212,3.212,0,0,0,1.454,4.022,2.344,2.344,0,0,0,1.82-.068ZM6.9,105.7c-.4-.159-.847-.655-1.548-1.729-1.078-1.653-1.28-1.9-1.581-1.9H3.511l0,.9c0,1.632.187,2.189.756,2.319.152.034.212.1.212.245v.2H.871v-.181c0-.137.068-.2.276-.261a1.017,1.017,0,0,0,.462-.3c.181-.217.185-.3.185-3.307s0-3.09-.185-3.307a1.087,1.087,0,0,0-.462-.3c-.2-.05-.276-.116-.276-.246,0-.173.009-.173,2.236-.224,2.37-.05,2.892-.014,3.56.282a2.012,2.012,0,0,1,1.071,1.7,2.444,2.444,0,0,1-1.473,2.019l-.44.2.972,1.31c1.141,1.549,1.5,1.961,1.834,2.12.313.145.343.47.053.536a5.378,5.378,0,0,1-1.783-.058V105.7Zm-2.2-4.429a1.49,1.49,0,0,0,.686-2.547A1.72,1.72,0,0,0,3.95,98.3l-.433.054v3h.418a3.73,3.73,0,0,0,.768-.089h0ZM24.99,105.7a2.712,2.712,0,0,1-1.178-.716c-.438-.519-.485-.791-.49-2.9-.006-2.2-.052-2.446-.5-2.632-.179-.075-.285-.177-.286-.279,0-.152.056-.159,1.5-.159,1.494,0,1.5,0,1.5.179,0,.12-.052.179-.161.179a.723.723,0,0,0-.374.2l-.213.205v2.159c0,2.032.011,2.178.183,2.473a1.527,1.527,0,0,0,1.493.663,1.471,1.471,0,0,0,1.432-.851c.224-.44.232-.462.232-2.4,0-1.729-.015-1.974-.157-2.163a.774.774,0,0,0-.373-.264c-.142-.031-.224-.106-.224-.2,0-.14.082-.15,1.186-.15s1.186.01,1.186.15c0,.094-.082.169-.216.2-.41.086-.44.26-.485,2.554l-.045,2.149-.268.463a2.339,2.339,0,0,1-1.469,1.107,6.036,6.036,0,0,1-2.282.007l.018.014Zm34.347,0a2.691,2.691,0,0,1-1.187-.728c-.415-.492-.475-.854-.48-2.929-.008-2.156-.06-2.4-.5-2.59-.186-.075-.291-.177-.291-.278-.007-.152.052-.16,1.492-.16,1.477,0,1.492,0,1.492.174,0,.116-.068.181-.194.2a.72.72,0,0,0-.373.25c-.172.21-.186.34-.216,2.082-.038,2.14.03,2.591.433,2.962a1.871,1.871,0,0,0,2.662-.326,5.948,5.948,0,0,0,.306-2.837c-.037-1.78-.1-2-.559-2.106-.142-.029-.224-.1-.224-.195,0-.138.082-.145,1.186-.145s1.194.014,1.194.152c0,.094-.1.188-.261.246a.741.741,0,0,0-.328.232c-.037.073-.089,1.1-.119,2.287l-.053,2.156-.268.47a2.335,2.335,0,0,1-1.477,1.107,5.9,5.9,0,0,1-2.282.014Zm27.876,0c-.352-.139-.77-.609-1.418-1.6-.837-1.273-.933-1.389-1.15-1.389-.194,0-.2.014-.2.994,0,1.188.11,1.523.524,1.6.209.038.269.09.269.237v.188h-3v-.188c0-.147.059-.2.269-.237.5-.09.537-.305.507-3.072l-.027-2.45-.213-.205a.719.719,0,0,0-.374-.2.145.145,0,0,1-.161-.152c0-.13.09-.16.649-.207.358-.036,1.335-.043,2.178-.029,1.372.022,1.573.043,1.9.2a1.579,1.579,0,0,1,.909,1.5,1.843,1.843,0,0,1-1.163,1.607c-.239.123-.4.246-.343.275a12.125,12.125,0,0,1,.865,1.1c.836,1.136,1.3,1.643,1.492,1.643.171,0,.156.369-.015.427a3.867,3.867,0,0,1-1.492-.065l-.014.026Zm-1.627-3.739a1.469,1.469,0,0,0,.758-.866,1.364,1.364,0,0,0-.448-1.208,1.322,1.322,0,0,0-1.132-.282l-.317.036v2.446h.445a2.047,2.047,0,0,0,.693-.116v-.009Zm39.2,3.725a3.816,3.816,0,0,1-.515-.148,5.665,5.665,0,0,1-.142-.789l-.109-.76h.248c.137,0,.249.029.249.065,0,.21.578.818.913.963.906.4,1.993.022,1.993-.68,0-.463-.249-.738-1.1-1.216-1.19-.673-1.65-1.027-1.887-1.462a2.081,2.081,0,0,1-.1-1.585,2.32,2.32,0,0,1,1.137-.984,5.8,5.8,0,0,1,2.543.008l.462.145v1.418h-.254c-.2,0-.267-.044-.31-.2a1.5,1.5,0,0,0-.959-.84c-1.051-.253-1.9.724-1.238,1.433a9.769,9.769,0,0,0,1.275.89c1.119.68,1.529,1.057,1.67,1.5a1.731,1.731,0,0,1-1.29,2.221,5.816,5.816,0,0,1-2.581.036l-.008-.018ZM9.413,105.514c0-.142.049-.184.213-.184a.593.593,0,0,0,.4-.21c.175-.2.182-.3.182-2.706a14.541,14.541,0,0,0-.1-2.672.694.694,0,0,0-.537-.369c-.1,0-.157-.068-.157-.2v-.2H14.7v1.679l-.232-.024c-.179-.019-.261-.092-.336-.3-.179-.473-.47-.595-1.514-.63l-.925-.03v2.264l.708-.036c.768-.042,1.156-.21,1.208-.528.015-.126.089-.171.261-.171H14.1v2.069H13.86c-.194,0-.246-.036-.246-.188,0-.354-.3-.485-1.156-.513l-.783-.029v1.122c0,1.346.008,1.367,1.015,1.367.991,0,1.506-.224,1.767-.774.127-.275.433-.354.529-.137a3.66,3.66,0,0,1-.373,1.4l-.135.232-2.55-.015-2.55-.014v-.181Zm6.781.024c0-.145.059-.2.253-.235.462-.084.485-.2.515-2.755.029-2.658-.008-2.9-.492-3.1-.2-.084-.284-.174-.291-.305v-.187l2,.034c2.163.036,2.342.072,2.931.513a1.7,1.7,0,0,1,.373,2.193,2.455,2.455,0,0,1-2.088,1.064l-.552.05-.134-.3-.142-.3.321-.044a1.811,1.811,0,0,0,1.1-.579.853.853,0,0,0,.179-.637,1.277,1.277,0,0,0-1.335-1.31L18.35,99.6l.023,2.656c.03,2.894.044,2.974.537,3.068.179.036.239.094.239.239v.188H16.157v-.188Zm14.618-.029c0-.123.052-.179.164-.179a.8.8,0,0,0,.373-.152l.209-.152.022-2.463c.03-2.757-.007-2.965-.515-3.138-.164-.054-.269-.148-.269-.232,0-.129.12-.145,1.343-.162,2.565-.038,3.11-.012,3.528.171a1.241,1.241,0,0,1,.835,1.136,2.775,2.775,0,0,1-.023.651,1.718,1.718,0,0,1-.954.883l-.425.175.358.1a1.744,1.744,0,0,1,.029,3.358c-.425.173-.537.181-2.573.181h-2.11V105.5Zm3.879-.6a1.127,1.127,0,0,0,.574-1.194c-.074-.832-.723-1.328-1.737-1.328H32.99l.023,1.2c.022,1.149.037,1.205.231,1.351a1.567,1.567,0,0,0,1.424-.029Zm-.366-3.3a.983.983,0,0,0,.768-1.032c-.075-.623-.634-.969-1.559-.969H33v2.146l.462,0a3.175,3.175,0,0,0,.85-.14Zm3.609,3.9c0-.128.06-.181.232-.2a.749.749,0,0,0,.418-.25c.179-.217.186-.311.186-2.663a9.493,9.493,0,0,0-.126-2.636.728.728,0,0,0-.559-.394c-.1-.007-.157-.065-.157-.188,0-.181,0-.181,1.581-.181s1.581,0,1.581.174c0,.123-.052.173-.171.173a.908.908,0,0,0-.418.188l-.224.21-.03,2.5-.023,2.5.224.13a1.57,1.57,0,0,0,.91.094c.835-.043,1.231-.231,1.462-.7.149-.311.321-.384.552-.254.082.051.067.2-.067.688a3.7,3.7,0,0,1-.313.81l-.142.188-2.461-.029-2.461-.029v-.173l.007.034Zm6.16.024c0-.147.06-.2.269-.237.485-.087.522-.3.522-2.969,0-2.213-.015-2.383-.172-2.623a.824.824,0,0,0-.4-.307c-.157-.029-.224-.1-.224-.217,0-.166.023-.166,1.5-.166s1.492.007,1.492.173c0,.116-.074.188-.216.224a.736.736,0,0,0-.373.268c-.141.2-.156.456-.156,2.641,0,2.7.037,2.916.492,3,.187.036.246.094.246.239v.188H44.088v-.188l.007-.03Zm21.047-.014c0-.13.067-.187.268-.223.485-.087.522-.3.522-2.977,0-2.342-.007-2.379-.2-2.645a.792.792,0,0,0-.395-.3.187.187,0,0,1-.194-.218v-.193h5.191v.834c0,.825-.007.832-.216.832-.172,0-.224-.051-.269-.275-.1-.47-.462-.629-1.514-.666l-.887-.029-.06.377a10.2,10.2,0,0,0-.06,1.129v.752l.746-.043c.82-.05,1.149-.181,1.238-.5a.233.233,0,0,1,.261-.2h.209v2.062h-.217c-.149,0-.224-.043-.224-.137-.007-.4-.433-.579-1.32-.579H67.3l.03,1.114c.038,1.353.03,1.346,1.082,1.346.932,0,1.417-.2,1.67-.695.127-.253.224-.34.366-.34a.337.337,0,0,1,.254.087,3.976,3.976,0,0,1-.47,1.549c-.1.094-.552.109-2.626.094l-2.5-.014v-.173l.038.029Zm9.688.019c0-.13.082-.217.276-.3a1.37,1.37,0,0,0,.462-.338c.179-.217.179-.315.179-3.219,0-3.372-.007-3.408-.619-3.589-.239-.073-.313-.137-.313-.29v-.195h6.16V99.6h-.269c-.216,0-.268-.037-.268-.181a1.094,1.094,0,0,0-.686-.832,5.064,5.064,0,0,0-1.313-.166l-.992-.036v2.72l.723-.007c.97-.007,1.3-.116,1.506-.492.134-.246.209-.3.418-.3h.261V102.7l-.283-.029c-.194-.022-.3-.079-.328-.188-.142-.471-.678-.681-1.752-.681h-.567l.038,1.411c.037,1.607.112,1.845.641,2.012.231.073.306.145.306.282v.181H74.8v-.181Zm14.089-.014c0-.145.044-.2.171-.2.269,0,.574-.5,1.246-2,.9-2.023,1.745-4.079,1.745-4.226,0-.1.09-.127.418-.126h.418l1.186,2.748c1.29,2.984,1.529,3.447,1.827,3.567a.284.284,0,0,1,.194.257c0,.181,0,.181-1.5.181h-1.5v-.19c0-.145.06-.2.261-.236.38-.068.4-.3.112-1.085l-.254-.675H91.164l-.209.557c-.269.7-.254,1.179.037,1.223.142.022.194.079.194.217v.195H88.9v-.195Zm4.05-2.783a12.328,12.328,0,0,0-.7-1.707c-.037,0-.127.152-.2.34l-.373.876-.224.536h.746a3.747,3.747,0,0,0,.745-.036Zm3.788,2.794c0-.138.06-.2.239-.232.477-.087.492-.2.529-2.794.038-2.677,0-2.9-.515-3.075-.156-.051-.268-.145-.268-.232,0-.123.1-.138.992-.138h.984l.574.659c.313.362,1.126,1.244,1.8,1.968q.725.77,1.432,1.556l.2.239-.03-1.794c-.03-1.954-.082-2.156-.552-2.265-.141-.029-.224-.109-.224-.2,0-.137.083-.152,1.186-.152s1.186.015,1.186.16c0,.1-.075.166-.194.181a.737.737,0,0,0-.373.254c-.179.217-.186.326-.216,3.162l-.03,2.938H103.1c-.351,0-.418-.029-.679-.333-.239-.268-3.968-4.443-4.11-4.588-.022-.022-.022.854,0,1.947.038,2.221.1,2.482.515,2.562.194.036.253.087.253.232v.188H96.7v-.188l.052-.05Zm15.409-.007c0-.116.045-.2.12-.2.172,0,.5-.369.731-.84.321-.644,1.827-4.153,2.088-4.863l.239-.659.79.058,1.164,2.706c.641,1.491,1.238,2.83,1.328,2.981.194.355.485.637.634.637.067,0,.119.087.119.2v.2h-3v-.2c0-.137.045-.2.157-.2.425,0,.462-.333.141-1.208l-.231-.615h-2.066l-.187.536c-.351,1.013-.336,1.295.082,1.295.12,0,.164.058.164.2v.2h-2.29v-.2l.014-.043Zm3.737-3.553c-.172-.449-.328-.868-.358-.934s-.209.232-.44.76c-.216.485-.388.9-.388.933a2.117,2.117,0,0,0,.738.065h.738l-.306-.81.015-.014Zm4.013,3.56c0-.152.045-.2.2-.2a.6.6,0,0,0,.373-.167c.149-.152.164-.34.186-2.641.015-1.361.008-2.554-.022-2.648a.805.805,0,0,0-.589-.5c-.112,0-.164-.058-.164-.173,0-.174,0-.174,1.492-.174,1.439,0,1.5.007,1.5.159,0,.1-.1.2-.261.261a.725.725,0,0,0-.343.318,22.989,22.989,0,0,0-.12,4.124c.053.933.09,1.158.231,1.3a.553.553,0,0,0,.328.166c.112,0,.157.058.157.2v.2h-2.991v-.2Zm9.86-.014c0-.138.052-.181.216-.181a.6.6,0,0,0,.4-.21c.172-.2.179-.3.179-2.706a13.8,13.8,0,0,0-.1-2.67.721.721,0,0,0-.537-.369c-.1,0-.157-.065-.157-.2v-.195h5.28v1.679l-.231-.022c-.172-.015-.254-.087-.328-.3-.171-.47-.462-.593-1.514-.63l-.925-.029v2.243h.552c.76-.007,1.133-.13,1.3-.449.1-.188.186-.253.351-.253h.216V103.3h-.224c-.2,0-.246-.036-.246-.188,0-.354-.291-.485-1.156-.514l-.783-.029v1.114c0,1.346.014,1.367,1.021,1.367s1.507-.224,1.768-.774c.127-.275.433-.354.529-.137a3.66,3.66,0,0,1-.373,1.4l-.135.232-2.55-.014-2.551-.014v-.188ZM11.795,98.267l-.214-.15L12.1,97.4a2.73,2.73,0,0,1,.649-.724,4.254,4.254,0,0,1,1.222.239,16.434,16.434,0,0,1-1.876,1.51.851.851,0,0,1-.3-.152ZM.608,92.776H134.735v.713H.606v-.715l0,0Zm51.047-1.628a1.279,1.279,0,0,1-.973-1.454,1.254,1.254,0,0,1,.835-.926l.418-.174-.254-.13c-.142-.076-.254-.2-.254-.29a1.883,1.883,0,0,1,.805-.723c.038,0-.014-.132-.119-.294a1.482,1.482,0,0,1,.753-2.078c.455-.212.611-.221,2.208-.129.917.054.955.063.9.224-.022.094-.044.2-.052.23s-.149.059-.343.059h-.343l.045.462c.1,1.008-.693,1.7-1.976,1.717-.664.009-.985.137-.724.288a9.785,9.785,0,0,0,.955.317c1.462.427,1.73.642,1.67,1.324A1.984,1.984,0,0,1,53.6,91.152a4.326,4.326,0,0,1-1.917,0l-.027,0Zm1.961-.492c.714-.321,1.024-.934.634-1.252a3.979,3.979,0,0,0-1.705-.492c-.6.109-1.171.774-1.066,1.252.142.659,1.216.907,2.133.493h0Zm.236-3.6a1.111,1.111,0,0,0,.388-1.546c-.492-.567-1.432.065-1.439.97a.536.536,0,0,0,.246.536.6.6,0,0,0,.821.043ZM57.193,88.9a.723.723,0,0,1-.634-.717,3.658,3.658,0,0,1,1.976-3.108A4.175,4.175,0,0,1,61,85.022c.067.022.023.293-.157.852a6.336,6.336,0,0,0-.425,2.375c.074.124.127.133.366.06.216-.073.291-.065.351.022.126.181.052.246-.455.4-.671.21-.984.167-1.089-.145l-.075-.246-.358.181a3.5,3.5,0,0,1-1.939.376Zm1.522-.714a1.824,1.824,0,0,0,.6-.376,11.142,11.142,0,0,0,.619-2.048c.059-.284.052-.294-.269-.374-.589-.151-1.186.239-1.656,1.086-.492.883-.619,1.673-.3,1.878.224.141.358.116,1.021-.166h-.014Zm41.7.691a.7.7,0,0,1-.642-.572,3.129,3.129,0,0,1,.866-2.359,2.863,2.863,0,0,1,2.9-1.05,2.924,2.924,0,0,1,.664.142,4.484,4.484,0,0,1-.246,1.129,9.179,9.179,0,0,0-.321,1.589l-.015.52.373-.014c.336-.014.373.007.373.166s-.083.2-.507.318c-.693.2-1.022.152-1.059-.13a.481.481,0,0,0-.06-.217c-.015,0-.246.087-.507.188a5.95,5.95,0,0,1-1.447.362c-.03,0-.187-.036-.343-.065l-.029-.008Zm1.477-.68a2.619,2.619,0,0,0,.544-.326,7,7,0,0,0,.731-2.149c.052-.246.037-.261-.3-.341a.826.826,0,0,0-.656.044,3.216,3.216,0,0,0-1.4,2.048c-.276.957.067,1.182,1.1.719l-.015,0Zm-95.509.5a9.6,9.6,0,0,1,.351-1.642c.433-1.585.433-1.715-.045-1.592-.231.058-.254.044-.254-.116s.082-.2.507-.317a5.491,5.491,0,0,1,.813-.152c.291-.017.313,0,.336.249a9.21,9.21,0,0,1-.336,1.614,7.7,7.7,0,0,0-.313,1.472c.045.1.134.111.455.068.38-.053.4-.047.373.126-.023.145-.135.21-.515.318a4.145,4.145,0,0,1-.9.138c-.358,0-.418-.022-.462-.174l-.007.008Zm3.386.037-.2-.152.686-2.706c.373-1.489.671-2.807.656-2.934-.03-.234-.06-.246-.4-.152-.164.045-.194.024-.194-.145,0-.232.313-.344,1.171-.42.492-.044.507-.042.507.145a14.153,14.153,0,0,1-.306,1.453c-.171.695-.306,1.306-.306,1.362,0,.08.1.065.38-.048.984-.391,1.835-.369,2.148.05a2.573,2.573,0,0,1-.328,2.257,3.765,3.765,0,0,1-1.357,1.281,4.674,4.674,0,0,1-2.431,0ZM12,88.23a3.468,3.468,0,0,0,1.074-2.077c.142-.846-.477-1.013-1.462-.4a1.18,1.18,0,0,0-.462.528,11.346,11.346,0,0,0-.485,1.883c0,.333.858.372,1.343.058Zm3.364.405c-.239-.224-.254-.29-.254-.818a2.984,2.984,0,0,1,2.022-2.873,1.613,1.613,0,0,1,1.439.156c.2.153.239.249.239.574,0,.818-.82,1.44-2.013,1.513a1.756,1.756,0,0,0-.686.128,1.044,1.044,0,0,0,.037.789c.224.377.537.387,1.29.037.47-.217.567-.239.641-.137.157.222.082.292-.6.582a2.625,2.625,0,0,1-1.26.29c-.522,0-.6-.02-.836-.243l-.022,0Zm1.581-1.91c.753-.188,1.246-.912.865-1.259-.239-.218-.462-.211-.776.025a3.21,3.21,0,0,0-.768,1.139c-.044.145-.022.174.15.174a3.193,3.193,0,0,0,.544-.087Zm2.968,2.123c0-.012.157-.629.351-1.367a12.347,12.347,0,0,0,.358-1.693V85.44l-.351.051c-.313.043-.351.032-.351-.109,0-.174.284-.307,1-.469.492-.109.679-.034.679.275v.187l.313-.191a1.288,1.288,0,0,1,1.283-.232c.194.08.336.181.321.232-.239.76-.373,1-.567,1-.172,0-.2-.036-.2-.268,0-.579-.552-.579-.963-.008a7.086,7.086,0,0,0-.716,2.251,1.448,1.448,0,0,1-.2.608,5.847,5.847,0,0,1-.932.094l-.023-.012Zm4.423-.075c-.1-.1-.045-.39.462-2.46L25,85.459h-.3c-.164,0-.3-.022-.3-.043,0-.123.2-.354.306-.354.216,0,.626-.377.805-.731.194-.39.269-.456.559-.456.194,0,.209.029.157.26-.03.145-.082.4-.112.558l-.053.3h.41c.418,0,.477.065.358.354-.037.094-.171.131-.47.131-.492,0-.41-.16-.8,1.585-.284,1.28-.269,1.4.209,1.273.4-.1.433-.094.4.109-.022.138-.134.21-.47.311a1.994,1.994,0,0,1-1.35.044Zm3.557-.1c-.641-.622-.179-2.409.85-3.242a2.781,2.781,0,0,1,1.5-.6,1.741,1.741,0,0,1,.962.4,1.285,1.285,0,0,1-.082,1.078,2.47,2.47,0,0,1-2.044.9h-.515v.42c0,.817.38.955,1.365.521a2.3,2.3,0,0,1,.612-.217.6.6,0,0,1,.074.2c.023.13-.1.217-.619.456a2.322,2.322,0,0,1-1.261.3c-.544,0-.634-.022-.82-.2Zm1.551-1.946a1.409,1.409,0,0,0,.932-.687c.12-.254.12-.3-.037-.485-.239-.289-.477-.3-.843-.007a2.85,2.85,0,0,0-.76,1.187C28.733,86.849,29.069,86.841,29.441,86.726Zm33.077,2.106c-.119-.109-.045-.579.38-2.2.574-2.2.88-3.5.88-3.712,0-.152-.037-.166-.306-.123s-.306.029-.306-.145c0-.2.224-.29,1.1-.441.455-.073.582-.022.582.239,0,.123-.291,1.375-.656,2.793s-.664,2.7-.664,2.844v.268l.4-.044c.38-.043.4-.036.373.13-.023.138-.135.21-.507.311a2.444,2.444,0,0,1-1.261.094l-.015-.014Zm3.319-.044c-.1-.159-.045-.5.328-1.83a8.682,8.682,0,0,0,.328-1.39c-.038-.137-.06-.145-.44-.065-.2.043-.246.029-.246-.109,0-.188.38-.354,1.066-.477.492-.08.7-.037.7.145,0,.065-.179.8-.395,1.621a8.659,8.659,0,0,0-.336,1.585c.037.05.209.065.448.036.373-.043.395-.036.365.13-.022.138-.134.21-.515.311-.567.167-1.193.188-1.283.051Zm3.252-.036a1.417,1.417,0,0,1,.052-.572c.2-.8.626-2.634.626-2.67s-.119-.036-.268-.036c-.38,0-.306-.224.141-.434a1.337,1.337,0,0,0,.641-.659c.254-.427.328-.492.545-.492h.246l-.12.5c-.067.275-.119.521-.119.557a.921.921,0,0,0,.44.058c.462,0,.477.007.388.3-.045.159-.112.181-.507.181H70.7l-.3,1.339a8.016,8.016,0,0,0-.246,1.469c.044.1.112.116.343.05.4-.1.425-.094.425.116,0,.16-.075.21-.515.318-.678.174-1.231.174-1.3,0Zm3.632-.043c-.217-.167-.261-.261-.291-.709a3.155,3.155,0,0,1,1.193-2.648,1.87,1.87,0,0,1,2.252-.188c.239.217.261.275.217.636-.083.789-.918,1.361-2.066,1.411-.716.037-.79.116-.649.673.157.608.433.673,1.313.3.582-.246.716-.246.716,0s-1.052.666-1.813.7c-.559.029-.649.014-.872-.166v-.007Zm1.864-2.127c.552-.254.791-.811.477-1.122-.395-.39-1.119.124-1.484,1.05l-.126.34.395-.05a3.291,3.291,0,0,0,.746-.21ZM95.64,88.86c0-.014.157-.63.351-1.367a12.148,12.148,0,0,0,.358-1.694v-.347L96,85.5c-.313.043-.351.036-.351-.109,0-.188.156-.268.872-.434.619-.145.806-.087.806.246v.188l.313-.188a1.312,1.312,0,0,1,1.283-.239,1.036,1.036,0,0,1,.343.188,3.932,3.932,0,0,1-.194.543c-.164.412-.232.5-.4.5s-.2-.043-.2-.268c0-.543-.515-.587-.9-.073a4.693,4.693,0,0,0-.686,1.932,5.912,5.912,0,0,1-.246.963,3.705,3.705,0,0,1-.977.123l-.023-.014Zm10.158-.094a6.108,6.108,0,0,1,.351-2.062l.291-1.194-.246-.022c-.291-.029-.343-.29-.067-.369a1.523,1.523,0,0,0,.842-.767c.194-.39.269-.456.559-.456.194,0,.209.029.157.261-.03.145-.082.4-.112.557l-.052.3h.41c.418,0,.477.065.358.355-.038.094-.172.13-.47.13-.485,0-.41-.16-.8,1.585-.284,1.281-.269,1.4.209,1.274.4-.1.433-.094.4.109-.023.137-.135.209-.47.311-.582.181-1.26.188-1.335.022Zm3.557-.079c-.664-.6-.2-2.4.836-3.242a2.781,2.781,0,0,1,1.5-.6,1.734,1.734,0,0,1,.962.405,1.3,1.3,0,0,1-.082,1.085,2.464,2.464,0,0,1-2.051.9H110l.045.492c.067.774.38.883,1.343.449a2.31,2.31,0,0,1,.611-.217.588.588,0,0,1,.075.2c.03.13-.1.217-.619.456a2.277,2.277,0,0,1-1.238.3c-.515,0-.619-.022-.82-.2l-.038-.022Zm1.85-2.07c.619-.275.9-.912.507-1.18-.254-.173-.44-.145-.776.123a2.826,2.826,0,0,0-.76,1.194c0,.13.6.051,1.022-.137Zm2.677,2.214c0-.036.164-.68.358-1.433a9.634,9.634,0,0,0,.336-1.621c-.023-.232-.045-.246-.351-.232-.246.007-.328-.022-.366-.137s.045-.181.41-.3a7.361,7.361,0,0,1,.783-.21c.343-.058.335-.065.552.405a5.245,5.245,0,0,0,.522-.224c.611-.275.708-.29,1.081-.08l.284.152-.187.513c-.157.434-.224.521-.388.521s-.2-.043-.2-.26c0-.7-.731-.557-1.126.21a9.274,9.274,0,0,0-.44,1.476c-.142.622-.276,1.136-.291,1.15a2.942,2.942,0,0,1-.954.058l-.023.014Zm4.408,0c0-.036.142-.564.321-1.172A8.338,8.338,0,0,0,118.939,86l.015-.557-.313.029c-.246.022-.328-.008-.358-.124s.038-.173.4-.275c.8-.224.984-.239,1.141-.094a.49.49,0,0,1,.142.318c0,.1.015.188.037.188s.276-.109.582-.239a3.453,3.453,0,0,1,1.932-.326c.179.086.194.13.142.5-.037.217-.179.832-.321,1.36s-.269,1.086-.284,1.238c-.022.275-.022.275.343.268.253-.007.388.029.418.109.067.166-.015.217-.567.362-.626.167-1.208.167-1.275,0a8.478,8.478,0,0,1,.3-1.541c.388-1.563.41-1.743.224-1.8a2.305,2.305,0,0,0-1.268.557c-.336.268-.373.354-.582,1.136-.12.471-.246,1.021-.284,1.23s-.112.4-.164.413a2.459,2.459,0,0,1-.94.051l.03.029Zm6.041-.058a9.188,9.188,0,0,1,.351-1.635,9.634,9.634,0,0,0,.358-1.614c-.03-.08-.112-.087-.336-.029q-.155.045-.313.079a.475.475,0,0,1-.022-.181c0-.152.082-.2.462-.3,1.044-.282,1.365-.232,1.26.188-.022.109-.209.8-.4,1.534a8.012,8.012,0,0,0-.306,1.462c.037.087.149.109.455.065.373-.043.395-.036.373.131-.06.34-1.745.636-1.872.333Zm3.326,0c-.059-.137.015-.513.358-1.9.38-1.527.38-1.389.059-1.389-.388,0-.321-.217.127-.427a1.354,1.354,0,0,0,.626-.637c.232-.383.328-.477.522-.5.269-.029.269-.007.082.846l-.052.261h.462c.388,0,.455.022.41.123a.776.776,0,0,0-.052.239c0,.087-.119.116-.47.116h-.47l-.291,1.339a8.037,8.037,0,0,0-.231,1.469c.045.109.112.116.351.058.4-.1.425-.094.425.116,0,.166-.074.21-.515.318-.671.173-1.231.173-1.3,0Zm3.625-.058c-.246-.2-.254-.217-.254-.984a2,2,0,0,1,.336-1.39,2.563,2.563,0,0,1,1.559-1.331c1.253-.419,2.148.3,1.6,1.274a2.337,2.337,0,0,1-1.991.955c-.507,0-.544.015-.6.21a1.021,1.021,0,0,0,.194.847c.2.21.544.174,1.164-.116.462-.21.559-.232.626-.137.157.224.082.311-.507.564a2.932,2.932,0,0,1-1.216.289c-.567.029-.649.015-.88-.166Zm1.924-2.142c.6-.3.8-.89.38-1.136a.5.5,0,0,0-.462-.05,1.98,1.98,0,0,0-.932,1.093l-.142.376.41-.05a2.7,2.7,0,0,0,.757-.232ZM.011,88.664a.252.252,0,0,1,.2-.168.988.988,0,0,0,.664-.613A28.181,28.181,0,0,0,1.86,83.4c.015-.586.015-.593-.269-.753-.544-.311-.395-.362,1.127-.362,1.208,0,1.41.022,1.41.123,0,.073-.112.145-.269.173-.559.1-.775.6-1.305,3.061-.492,2.3-.492,2.258-.268,2.46.171.152.261.167.947.138.925-.044,1.261-.181,1.581-.666.253-.377.268-.384.448-.282.1.058.1.137-.023.456a3.935,3.935,0,0,1-.343.709l-.2.318L2.338,88.8c-2.208.014-2.357.007-2.327-.123v-.015Zm44.543.024c0-.062.15-.178.336-.258a1.036,1.036,0,0,0,.522-.5,25.426,25.426,0,0,0,1.029-4.566c.015-.539.008-.557-.268-.715-.589-.34-.455-.362,2.23-.362,2.461,0,2.513,0,2.461.157-.03.079-.1.4-.164.695-.09.456-.135.543-.3.564s-.194-.014-.194-.188c0-.528-.343-.68-1.581-.68h-.85l-.239,1.013q-.137.577-.284,1.151c-.037.123.038.137.738.137.88,0,1.141-.087,1.395-.456.232-.333.53-.354.462-.044l-.2.948c-.12.579-.187.731-.3.731-.089,0-.164-.087-.2-.239a.537.537,0,0,0-.254-.333,5.015,5.015,0,0,0-1.693-.058,12.455,12.455,0,0,0-.433,1.91c-.052.34-.037.384.164.507.179.109.38.123,1,.1.917-.044,1.245-.174,1.623-.659.164-.21.321-.333.39-.3.172.058.152.2-.107.76-.388.832-.172.774-2.871.774-1.977,0-2.364-.022-2.364-.116l-.049.032Zm44.742,0c0-.063.134-.155.291-.2.559-.172.745-.625,1.3-3.2.477-2.214.47-2.569-.09-2.73-.1-.029-.164-.094-.142-.145a11.72,11.72,0,0,1,2.484-.113c2.4-.022,2.446-.022,2.387.131-.03.086-.1.4-.164.695-.09.456-.135.543-.3.564s-.194-.014-.194-.224c0-.507-.425-.666-1.626-.63l-.693.022L92.3,83.888c-.134.564-.246,1.078-.246,1.129,0,.145,1.343.13,1.663-.022a.849.849,0,0,0,.358-.362c.068-.152.179-.246.276-.246.209,0,.209-.058-.023,1.013-.157.753-.216.9-.351.9a.141.141,0,0,1-.156-.145c0-.369-.821-.651-1.581-.536l-.336.051-.179.89c-.313,1.563-.3,1.707.179,1.881.529.195.224.268-1.186.289-1.156.022-1.38.007-1.38-.094l-.044.055ZM37.633,86.98a1.177,1.177,0,0,1,.574-2.262,1.176,1.176,0,0,1,1.335,1.189,1.281,1.281,0,0,1-1.9,1.078l-.007-.006Zm44.831.038a1.615,1.615,0,0,1-.522-.405A.859.859,0,0,1,81.7,85.9a1.175,1.175,0,0,1,1.32-1.18,1.067,1.067,0,0,1,.805.239,1.1,1.1,0,0,1,.224,1.7,1.411,1.411,0,0,1-1.573.355h-.015ZM29.806,84.192c-.172-.172-.187-.155.812-1.182l.337-.347.5.1a1.44,1.44,0,0,1,.5.155A22.871,22.871,0,0,1,30,84.35a.726.726,0,0,1-.2-.157Zm44.8,0-.2-.142.664-.685a5.037,5.037,0,0,1,.739-.685,2.969,2.969,0,0,1,.954.246c-.022.052-1.663,1.243-1.872,1.36-.052.026-.179-.017-.283-.094Zm58.544,0-.213-.145.689-.684a5.76,5.76,0,0,1,.759-.683,3.889,3.889,0,0,1,.962.231c0,.043-1.663,1.254-1.88,1.371a.4.4,0,0,1-.308-.091ZM7.468,83.785c-.358-.322-.009-.945.529-.945.376,0,.571.177.571.517a.655.655,0,0,1-1.1.427h0Zm59.433.057A.619.619,0,0,1,66.922,83c.362-.326,1.056-.109,1.056.333a.715.715,0,0,1-1.074.521Zm58.489-.057c-.366-.328-.007-.945.544-.945a.515.515,0,0,1,.388.918.71.71,0,0,1-.939.027ZM48.228,81.513c-.135-.135-.1-.183.532-.808l.679-.666.5.109a1.484,1.484,0,0,1,.5.152,15.25,15.25,0,0,1-1.932,1.339.331.331,0,0,1-.283-.109v-.017Z" transform="translate(-0.003 -35.71)"/>
    <path id="Path_289" data-name="Path 289" class="cls-2" d="M139.945,41.324l.206-.479a10.035,10.035,0,0,1,1.231-2.253,8.618,8.618,0,0,1,2.272-2.116A4.956,4.956,0,0,1,146,36.191c.82.065,3.339.436,4.355.644a6.791,6.791,0,0,0,2.441.031,2.477,2.477,0,0,0,1.925-1.648,2.1,2.1,0,0,0-.006-1.657c-.3-.536-.251-.68.485-1.31a4.914,4.914,0,0,0,.661-.644,2.42,2.42,0,0,0-.634-1.071.8.8,0,0,1-.351-.152l-.209-.152.433-.2c.6-.275,1.037-.7,1.037-1.006a1.962,1.962,0,0,0-.284-.709,1.336,1.336,0,0,1-.209-1.259c.1-.188.3-.268,1.223-.507.775-.2,1.059-.412,1.171-.861a1.333,1.333,0,0,0-.209-1.093c-.209-.377-1.566-2.251-1.954-2.707a8.534,8.534,0,0,1-1.365-2.25,1.8,1.8,0,0,1-.052-1.324c.291-1.541.119-2.815-.708-5.3a19.722,19.722,0,0,0-.97-2.648c-.351-.622-.306-.767.41-1.295a4.259,4.259,0,0,0,.7-.6,1.043,1.043,0,0,0-.433-1.259c-.261-.123-.4-.037-.664.4-.2.333-.284.391-.492.391-.351,0-.41-.13-.186-.4.253-.318.239-.369-.172-.419-.306-.037-.462-.145-1.127-.753a7.745,7.745,0,0,0-2.655-1.679c-.544-.224-.731-.333-.537-.3.172.022.768.065,1.335.094,1.634.072,2.029-.123,2.409-1.187.254-.724.38-1.057-.217-1.563L149.026,0h48.856V41.324Z" transform="translate(-62.437)"/>
    <path id="Path_290" data-name="Path 290" class="cls-3" d="M35.846,41.324c-.354-.033-.661-.048-.683-.067a13.8,13.8,0,0,1,2.2-1.274c.589-.324.831-.5.749-.537a7.818,7.818,0,0,0-1.141-.113,2.969,2.969,0,0,0-1.32.07c-.166.069-.826.249-1.468.4-1.6.377-2.126.636-2.64,1.274l-.194.246H0V0H62.205L61,.709a12.117,12.117,0,0,0-1.714.919,9.235,9.235,0,0,0-2.538,3.187,1.1,1.1,0,0,1-.582.668A6.957,6.957,0,0,0,54.414,7.2a35.573,35.573,0,0,0-2.424,3.855c-.433.964-.4,1.7.239,4.579.276,1.268.574,2.557.664,2.863a7.326,7.326,0,0,1,.217,1.153,2.83,2.83,0,0,0,.477,1.432,1.624,1.624,0,0,1,.186.5.331.331,0,0,0,.172.239.371.371,0,0,1,.172.3c0,.137.2.4.641.836a6.716,6.716,0,0,1,1.737,2.231c0,.243-.395.306-1.036.164a5.027,5.027,0,0,1-2.3-1.349c-.4-.351-.723-.586-.723-.524a3.2,3.2,0,0,0,.6.724c.664.67.768.852.626,1.094-.127.213-.433.275-.85.172-.485-.12-.761.047-.686.4.045.224.037.246-.1.2a7.4,7.4,0,0,0-1.395-.254c-.492-.043-.529-.065-.82-.434a1.146,1.146,0,0,0-.634-.47,42.4,42.4,0,0,0-4.5-.709,17.692,17.692,0,0,0-4.415-.137,4.515,4.515,0,0,0-1.716.4c-.917.42-2.506,1.737-2.506,2.077,0,.159.351.109.745-.116a24.97,24.97,0,0,1,7.4-1.7c1.007-.036.955.008-.261.21-.336.058-1.127.239-1.76.413s-1.731.434-2.431.586-1.5.34-1.76.427l-.485.16.746.007c3.819.036,8.159,1.129,9.934,2.5a2.3,2.3,0,0,0,2.155.55,10.323,10.323,0,0,0,4.393-1.462c.38-.282.686-.4.686-.246a8.491,8.491,0,0,1-.716,2c-.239.39-.254.441-.127.528.075.05.12.116.09.137s.03.073.134.1c.291.087.217.166-.246.268s-.806.29-.806.413c0,.043.06.08.135.08.224,0,.06.145-.239.2-.2.044-.239.073-.149.124s.089.072.007.072c-.06,0-.112.08-.112.181,0,.123-.089.21-.269.282-.44.181-.321.275.284.224.306-.029.492-.029.418,0s-.567.224-1.1.449-1.231.485-1.544.587c-.358.116-.582.232-.6.318-.029.137.135.13.552-.014.075-.029.142-.015.142.022s-.918.513-2.036,1.063a23.289,23.289,0,0,0-2.334,1.252,1,1,0,0,1-.462.26.377.377,0,0,0-.269.2c-.172.34-.142.383.269.318.6-.094.887-.087.925.022.022.058-.038.1-.135.1a.414.414,0,0,0-.276.116.568.568,0,0,1-.336.137.623.623,0,0,0-.418.282.8.8,0,0,1-.351.3c-.1.022.039.029.306.007,3.96-.268,4.7-.4,6.3-1.129a15.267,15.267,0,0,0,3.782-2.482,3.6,3.6,0,0,1,.6-.485c.136,0,.062.441-.14.84a6.433,6.433,0,0,1-2.588,2.207,12.648,12.648,0,0,1-1.824.955A24.639,24.639,0,0,1,49,38.41c-4.172.543-5.768.955-7.35,1.9a1.786,1.786,0,0,1-.619.261.929.929,0,0,0-.44.217c-.47.369-.127.3.858-.152,1.014-.47,1.484-.543.686-.109a5.346,5.346,0,0,1-2.446.876H35.8l.047-.082Zm-5.182-4.609c.158-.06.682-.326,1.164-.589s1.055-.553,1.273-.642l1.365-.557a8.5,8.5,0,0,1,2.849-.745,1.2,1.2,0,0,0,.544.118c.371.023.435.045.283.094-.109.034-.2.094-.2.133,0,.143.824.1,1.171-.061A2.769,2.769,0,0,1,39.8,34.3c.3-.036.435-.086.435-.166s.076-.109.344-.065A13.224,13.224,0,0,0,43.89,33.5a22.082,22.082,0,0,0,3.517-1.063l.7-.29-.7-.405c-1.7-.984-3.416-1.592-7.173-2.54a9.244,9.244,0,0,1-1.277-.383c-.058-.051-.03-.058.088-.022.375.123.661.145.661.05,0-.116-.284-.21-.841-.282-.51-.065-.839-.2-.485-.2.548,0-.394-.318-1.449-.478-.78-.123-.825-.152-.5-.3.284-.123.589-.594.51-.781-.067-.167-.149-.145-.574.109a5.475,5.475,0,0,0-1.976,2.142c-.239.477-.157.521,1.074.572,1.014.037,1.029.044.768.167a2.762,2.762,0,0,1-.649.181c-.716.094-1.111.405-.753.587.1.05.067.094-.194.21-.291.123-.306.152-.172.217a1.516,1.516,0,0,0,.567.051.769.769,0,0,1,.6.123l.194.152-.388.217a1.72,1.72,0,0,0-.537.478,4.958,4.958,0,0,1-.656.738,2.181,2.181,0,0,0-.507.615,3.9,3.9,0,0,1-.9.774c-1.335.963-1.917,1.5-1.917,1.751a.383.383,0,0,1-.209.333c-.418.246-.634.528-.4.528a1.843,1.843,0,0,0,.38-.108l-.027.071Zm10.3-.929a3.2,3.2,0,0,0,.848-.205l.249-.133-.425-.191-.425-.191-.424.155c-.234.085-.557.2-.718.255-.65.222-.734.521-.125.439q.509-.065,1.019-.124v0ZM26.055,32.169a30.5,30.5,0,0,1,5.1-4.052c.6-.374,1.019-.59,1.04-.533.056.152.313.109.729-.13.479-.275.718-.557,1.315-1.527a4.807,4.807,0,0,1,1.749-1.889c.425-.29,1.037-.731,1.372-.97.485-.347.6-.405.559-.268-.03.1-.008.173.059.173a3.727,3.727,0,0,0,1.179-.456c.052-.145-.9-.29-1.611-.246a2.928,2.928,0,0,0-1.41.412,19.736,19.736,0,0,0-4.915,3.582,17.581,17.581,0,0,1-3.438,2.641c-.2.086-.358.275-.6.723a24.989,24.989,0,0,1-2.155,3.177c-.768.97-.933,1.3-.336.68q.685-.682,1.387-1.346l-.027.027Zm19.639,8.7a21.226,21.226,0,0,1,4.271-.541,6.69,6.69,0,0,0,3.211-.592c.358-.152.5-.179.548-.109.086.125.693-.173,1.878-.923.485-.306,1.169-.7,1.521-.87.532-.261.693-.3.95-.261.273.046.354.014.7-.26a4.24,4.24,0,0,1,2.615-1.127c.246,0,.331.032.331.126s.048.112.132.083c.246-.086.135.007-.5.434-.731.485-.664.637.082.167.716-.449.724-.449.724-.268,0,.1-.276.362-.776.738a26.633,26.633,0,0,0-3.17,2.786l-1.1,1.064H43.183l2.509-.456,0,.008Zm.022-16.189a.8.8,0,0,1,.308,0c.085.02.015.037-.153.037S45.632,24.7,45.716,24.681Z"/>
    <path id="Path_291" data-name="Path 291" class="cls-4" d="M154.771,34.849c-.385-.054-.187-.183.28-.183s.713-.162.713-.469c0-.145-.03-.168-.179-.125a.26.26,0,0,1-.306-.1.836.836,0,0,0-.552-.208c-.5-.06-1.313-.5-1.171-.63a1.614,1.614,0,0,1,.574-.118c.462-.035.492-.05.582-.305a.442.442,0,0,1,.336-.318,1.219,1.219,0,0,0,.455-.234,10.142,10.142,0,0,1,.88-.572c.611-.362.992-.745.857-.868a6.408,6.408,0,0,0-2.088-.224,12.773,12.773,0,0,0-2.484.47c-.529.181-.38.022.358-.369a10.522,10.522,0,0,1,3.953-1.027,7.691,7.691,0,0,1,1.947.412c.321.239-.03,1.078-.619,1.5l-.246.173.4.391-.209.152a.81.81,0,0,1-.343.152,1,1,0,0,0-.425.246c-.239.21-.269.275-.2.441a.373.373,0,0,1-.015.354,1.052,1.052,0,0,0-.037.586c.074.528-.03.717-.462.825a8.513,8.513,0,0,1-1.984.022l-.016.03Z" transform="translate(-67.973 -13.191)"/>
  </g>
</svg>
