<svg xmlns="http://www.w3.org/2000/svg" viewBox="0 0 306.75 40"><path class="cls-1" d="M29.14 13.71a13.75 13.75 0 0 1-14 13.72h-4.5a1.5 1.5 0 0 0-1.5 1.5v9.57a1.5 1.5 0 0 1-1.5 1.5H1.5A1.5 1.5 0 0 1 0 38.5v-37A1.5 1.5 0 0 1 1.5 0h13.64a13.74 13.74 0 0 1 14 13.71zm-9.14 0a4.89 4.89 0 0 0-4.86-5.14h-4.5a1.5 1.5 0 0 0-1.5 1.5v7.29a1.5 1.5 0 0 0 1.5 1.5h4.5A4.89 4.89 0 0 0 20 13.71zM31 20a20 20 0 0 1 40 0 20 20 0 0 1-40 0zm31.21 0c0-6.87-5-11.43-11.21-11.43S39.79 13.13 39.79 20 44.73 31.43 51 31.43 62.21 26.87 62.21 20zM73 29.82l5-2.92a1.49 1.49 0 0 1 2 .5 7.91 7.91 0 0 0 7.42 4c4.18 0 5.22-1.65 5.22-3.13 0-2.37-2.19-3.3-8-4.89S73.45 19.07 73.45 11.7 79.71 0 86.36 0a14.81 14.81 0 0 1 13.33 7.34 1.51 1.51 0 0 1-.53 2.08l-4.85 2.84a1.49 1.49 0 0 1-2-.52 6.42 6.42 0 0 0-5.94-3.17c-2.75 0-4.12 1.38-4.12 2.91 0 1.76.93 3 6.92 4.78 5.83 1.74 12.36 3.8 12.36 11.93 0 7.41-5.94 11.81-14.29 11.81-7.44 0-12.41-3.26-14.82-8.2a1.52 1.52 0 0 1 .58-1.98zM130.21 8.8h-7.28a1.5 1.5 0 0 0-1.5 1.5v28.2a1.5 1.5 0 0 1-1.5 1.5h-6.14a1.5 1.5 0 0 1-1.5-1.5V10.3a1.5 1.5 0 0 0-1.5-1.5h-7.29a1.5 1.5 0 0 1-1.5-1.5V1.5a1.5 1.5 0 0 1 1.5-1.5h26.71a1.5 1.5 0 0 1 1.5 1.5v5.8a1.5 1.5 0 0 1-1.5 1.5zM131 20c0-11.32 8.41-20 20-20a19.33 19.33 0 0 1 15.54 7.52 1.49 1.49 0 0 1-.46 2.19l-5 2.89a1.5 1.5 0 0 1-1.94-.4A10.22 10.22 0 0 0 151 8.57c-6.81 0-11.21 4.56-11.21 11.43s4.4 11.43 11.21 11.43a10.22 10.22 0 0 0 8.16-3.61 1.5 1.5 0 0 1 2-.41l5 2.88a1.51 1.51 0 0 1 .46 2.19A19.19 19.19 0 0 1 151 40c-11.59 0-20-8.68-20-20zM168 20a20 20 0 0 1 40 0 20 20 0 0 1-40 0zm31.21 0c0-6.87-5-11.43-11.21-11.43S176.79 13.13 176.79 20s5 11.43 11.21 11.43 11.21-4.56 11.21-11.43zM246.43 20c0 11.32-8.4 20-19.43 20h-14.5a1.5 1.5 0 0 1-1.5-1.5v-37a1.5 1.5 0 0 1 1.5-1.5H227c11 0 19.43 8.69 19.43 20zm-8.8 0c0-6.86-4.35-11.2-10.63-11.2h-5.36a1.5 1.5 0 0 0-1.5 1.5v19.4a1.5 1.5 0 0 0 1.5 1.5H227c6.28 0 10.63-4.34 10.63-11.2zM274 32.7v5.8a1.5 1.5 0 0 1-1.5 1.5h-22a1.5 1.5 0 0 1-1.5-1.5v-37a1.5 1.5 0 0 1 1.5-1.5h22a1.5 1.5 0 0 1 1.5 1.5v5.8a1.5 1.5 0 0 1-1.5 1.5h-12.86a1.5 1.5 0 0 0-1.5 1.5v3.63a1.5 1.5 0 0 0 1.5 1.5h11.29a1.5 1.5 0 0 1 1.5 1.5v5.68a1.51 1.51 0 0 1-1.5 1.51h-11.29a1.5 1.5 0 0 0-1.5 1.5v4.08a1.5 1.5 0 0 0 1.5 1.5h12.84a1.5 1.5 0 0 1 1.52 1.5zM289.61 26.86h-2a1.51 1.51 0 0 0-1.51 1.5V38.5a1.5 1.5 0 0 1-1.5 1.5h-6.1a1.5 1.5 0 0 1-1.5-1.5v-37a1.5 1.5 0 0 1 1.5-1.5H293a13.67 13.67 0 0 1 13.71 13.71 13.09 13.09 0 0 1-6.12 10.89 1.48 1.48 0 0 0-.49 2l6.45 11.13a1.51 1.51 0 0 1-1.3 2.26h-6.35a1.5 1.5 0 0 1-1.3-.75l-6.68-11.64a1.52 1.52 0 0 0-1.31-.74zm-3.47-9.51a1.52 1.52 0 0 0 1.51 1.51H293c2.51 0 4.57-2.23 4.57-5.15A4.84 4.84 0 0 0 293 8.57h-5.35a1.52 1.52 0 0 0-1.51 1.51z"/></svg>