<svg xmlns="http://www.w3.org/2000/svg" viewBox="0 0 24 19.492"><path class="cls-1" d="M21.533 4.858c.015.213.015.426.015.64A13.9 13.9 0 0 1 7.553 19.492 13.9 13.9 0 0 1 0 17.284a10.176 10.176 0 0 0 1.188.061 9.851 9.851 0 0 0 6.107-2.1 4.927 4.927 0 0 1-4.6-3.411 6.2 6.2 0 0 0 .929.076 5.2 5.2 0 0 0 1.294-.167A4.919 4.919 0 0 1 .975 6.918v-.061a4.954 4.954 0 0 0 2.223.624A4.926 4.926 0 0 1 1.675.898a13.982 13.982 0 0 0 10.142 5.147 5.553 5.553 0 0 1-.117-1.127 4.923 4.923 0 0 1 8.513-3.365A9.684 9.684 0 0 0 23.335.365a4.906 4.906 0 0 1-2.162 2.711A9.86 9.86 0 0 0 24 2.318a10.573 10.573 0 0 1-2.467 2.54z"/></svg>